<svg xmlns="http://www.w3.org/2000/svg" viewBox="0 0 993.4 289.94"><defs><style>.a,.c{fill:#333;}.b,.d,.g,.h{fill:#fff;}.c,.d,.e,.f,.g,.h{stroke:#333;}.c,.d{stroke-width:5.81px;}.e,.f{fill:none;}.e,.f,.g,.h{stroke-width:7.46px;}.f,.h{stroke-linecap:round;}</style></defs><path class="a" d="M344.25,257.75c12.14,11.36,22,24.82,33.72,36.6,11.32,11.38,25.95,18.75,39.77,26.68,2.44,1.4,10.24-2.37,8.68-3.27-13.88-8-28.29-15.39-39.78-26.69-11.83-11.64-21.57-25.23-33.71-36.59-1.93-1.81-10.41,1.64-8.68,3.27Z" transform="translate(-27.62 -32.27)"/><path class="a" d="M939.64,259.54c5.57,19.37,19.72,34.42,29.33,51.75,1.71,3.09,10.62,0,9.24-2.48-9.6-17.3-23.77-32.42-29.33-51.75-.91-3.18-10.14-.65-9.24,2.48Z" transform="translate(-27.62 -32.27)"/><path class="a" d="M119.59,269.68c13,11.9,23.89,25.63,35.49,38.81q5.41,6.13,11.07,12c2.17,2.25,10.94-1.14,8.6-3.57-12.38-12.83-23.24-27-35.49-39.93q-5.35-5.64-11.08-10.91c-1.5-1.37-4.44-.76-6.1,0-1,.43-4,2.18-2.49,3.6Z" transform="translate(-27.62 -32.27)"/><path class="a" d="M210.91,292c-7.45,9.52-15.75,18.37-22.67,28.3-.89,1.29,3.35.77,3.65.71,1.69-.34,4.37-.87,5.45-2.42,6.91-9.93,15.22-18.78,22.66-28.3,1-1.22-3.39-.75-3.65-.7-1.78.35-4.25.89-5.44,2.41Z" transform="translate(-27.62 -32.27)"/><path class="a" d="M735.39,244.16a11.85,11.85,0,0,1,2.07,2.59c1.34,1.89,2.62,3.83,3.89,5.77,3.9,5.94,7.69,12,11.48,18,8.42,13.37,16.71,26.84,25.33,40.09,1.53,2.34,3.05,4.68,4.66,7a12.39,12.39,0,0,0,2.41,3.06c1.75,1.24,4.24,1,6.13.11.79-.36,4.22-2.48,2.45-3.73a10.75,10.75,0,0,1-2-2.52c-1.33-1.88-2.6-3.8-3.86-5.72-3.89-5.92-7.67-11.92-11.45-17.91C768,277.45,759.73,264,751.11,250.7c-1.53-2.36-3.07-4.72-4.69-7a13.41,13.41,0,0,0-2.45-3.14c-1.7-1.28-4.28-.95-6.12-.11-.85.39-4.19,2.43-2.46,3.73Z" transform="translate(-27.62 -32.27)"/><path class="a" d="M110.74,238.57c-4.22,9.91-5.71,21-6.06,31.71-.38,11.86.64,24.07,4.36,35.4a49.68,49.68,0,0,0,8,15.57c2.09,2.63,11-.66,8.55-3.71a42.13,42.13,0,0,1-6.78-12.71,83.26,83.26,0,0,1-3.91-16.54,113.58,113.58,0,0,1,.53-34.48,73.07,73.07,0,0,1,4.54-16.3c.31-.71-.45-1.5-1-1.79a5.45,5.45,0,0,0-3.06-.41c-2.14.3-4.34,1.19-5.22,3.26Z" transform="translate(-27.62 -32.27)"/><path class="a" d="M933.22,234.39c-9.46,11.5-14.7,26.43-17.44,40.9s-2.83,31,4.39,44.2c1.8,3.31,10.77.32,9.24-2.47-7.11-13-6.85-28.58-4.36-42.8,2.46-14,7.71-28.38,16.82-39.45,1.48-1.79-1.23-2.9-2.56-3a7.47,7.47,0,0,0-6.09,2.58Z" transform="translate(-27.62 -32.27)"/><path class="a" d="M691,230c-.16,7.78-5.54,15.1-10.06,21-7.38,9.66-16.15,18.27-25.14,26.41a287.16,287.16,0,0,1-30.32,23.87c-7.67,5.24-16,10.76-24.88,13.63-5.52,1.78-4.08,7.53,1.53,5.72,9.88-3.18,18.9-8.72,27.5-14.43a295,295,0,0,0,32-24.86,208.59,208.59,0,0,0,27-28c5.22-6.72,11.58-15.28,11.76-24.19.1-4.51-9.24-2.89-9.32.87Z" transform="translate(-27.62 -32.27)"/><path class="a" d="M721.51,317.93c-.89-14.86-3.88-29.46-5.84-44.2-2-14.91-2.9-30.1.49-45a74.73,74.73,0,0,1,10.48-24.36c1.25-1.91-1.1-3.65-2.8-3.79a6.36,6.36,0,0,0-6,2.8c-8.9,13.53-12.94,29.38-13.26,45.47-.3,15.43,2.29,30.71,4.66,45.91.63,4.09,1.25,8.19,1.78,12.3q.39,3,.69,6c.1,1,.19,2,.28,3s.16,2.08.19,2.62c.13,2.21,2.16,3.17,4.25,2.95a6.67,6.67,0,0,0,3.47-1.27c.68-.54,1.69-1.46,1.63-2.42Z" transform="translate(-27.62 -32.27)"/><path class="b" d="M159.77,214.76C75.72,247.34-12.61,140.83,92.15,102.18c64.44-22.85,138.91,77.79,67.33,114.6" transform="translate(-27.62 -32.27)"/><path class="a" d="M157.64,213.11c-32.55,12.37-70.95.82-93.31-25.38C55.17,177,49,162.64,50.59,148.33c1.81-16.49,13.87-29.16,27.69-37.13,7.79-4.5,16.29-8.27,25.27-9.43,8-1,16.22.5,23.77,2.92,16.08,5.15,30.08,16.24,40.34,29.47,9.41,12.13,15.65,27.48,15.07,43-.65,17.19-12,30.85-26.75,38.58-1.13.59-4,2.71-1.33,3.52s6-.2,8.32-1.4c15.47-8.12,28.33-20.81,31.12-38.67,2.51-16.09-3.5-32.23-12.49-45.36-20.48-29.89-58.12-45.83-93-32.76-17.42,6.53-35,16.77-44.53,33.31-7.06,12.23-7,27-1.85,39.86,12.17,30.43,46.87,48,78.18,49.24a105,105,0,0,0,41.48-7c.77-.29,5.3-2.31,3.43-3.76s-5.78-.29-7.7.45Z" transform="translate(-27.62 -32.27)"/><path class="a" d="M136.07,189.61c-8.86,4.37-18.39,7.43-28.35,5.86-9-1.42-16-7.8-20.7-15.28-1.08-1.74-6.7.44-6,1.6,5.62,9,13.52,15,24.13,16.7,11.8,1.86,24.06-2.48,34.48-7.61,3.58-1.76-1.91-2.09-3.58-1.27Z" transform="translate(-27.62 -32.27)"/><path class="c" d="M182.27,132.35l-7.87-2.24a4.29,4.29,0,0,0-1.05-.15l-.7-.25c-.05,0-3-1.09-7.1-2.24a74.59,74.59,0,0,0-14-2.79c-.84-.07-1.67-.11-2.48-.1a116.61,116.61,0,0,0-13.84.77,41.43,41.43,0,0,0-6.13,1.18,13.14,13.14,0,0,0-4.88,2.37l-.07.06a2.94,2.94,0,0,0-.84-.19l-15.17-1.16a3.13,3.13,0,0,0-1,.07c-.06-.07-.11-.15-.17-.21a13,13,0,0,0-4.47-3.09,42.73,42.73,0,0,0-5.88-2.1,117,117,0,0,0-13.55-2.86c-.81-.13-1.64-.23-2.47-.29a76.19,76.19,0,0,0-14.24.63c-4.22.52-7.32,1.14-7.36,1.14l-.73.15a3.82,3.82,0,0,0-1.07,0l-8.11,1a3,3,0,0,0-2.76,3.56l.45,3.58a3.44,3.44,0,0,0,3.58,3.16c0,.24,0,.5,0,.77.07.77.16,1.65.29,2.63.26,2,.63,4.33,1.07,6.8a128.82,128.82,0,0,0,3.1,13.67,16.92,16.92,0,0,0,1,2.56,10,10,0,0,0,3.8,3.8,24.7,24.7,0,0,0,5.22,2.36,52.54,52.54,0,0,0,12.31,2.41c8.23.62,15-1.16,19.54-5a23,23,0,0,0,2.71-2.87c.92-1.12,1.86-2.38,2.8-3.71,1.88-2.65,3.7-5.56,5.09-8a36.22,36.22,0,0,0,2.11-4.09,14.09,14.09,0,0,0,.91-4.15l0-.62h.11a5.42,5.42,0,0,1,8.64.44c0,.32-.08.63-.1,1a13.9,13.9,0,0,0,.27,4.24,37.27,37.27,0,0,0,1.45,4.37c1,2.6,2.38,5.74,3.83,8.66.72,1.45,1.46,2.84,2.2,4.08a23.71,23.71,0,0,0,2.24,3.26c3.89,4.5,10.32,7.29,18.54,7.93a52.48,52.48,0,0,0,12.54-.5,25.36,25.36,0,0,0,5.52-1.54,10.11,10.11,0,0,0,4.33-3.18,16.27,16.27,0,0,0,1.37-2.38,128,128,0,0,0,5.14-13c.81-2.37,1.54-4.66,2.1-6.56.27-.95.5-1.8.68-2.55.06-.27.12-.52.16-.75a3.46,3.46,0,0,0,4-2.58l1-3.47A3,3,0,0,0,182.27,132.35Zm-78.46,9a22,22,0,0,1-1.14,2.29c-.55,1-1.25,2.2-2,3.45a88.86,88.86,0,0,1-5.09,7.44,23,23,0,0,1-2.78,3.13c-2.83,2.46-8,4.12-15.09,3.56a48.58,48.58,0,0,1-8.29-1.35,24.4,24.4,0,0,1-6.49-2.51,4.4,4.4,0,0,1-1.58-1.4,8.48,8.48,0,0,1-.5-1.31c-.22-.66-.46-1.49-.71-2.43-.49-1.89-1-4.22-1.51-6.62-1-4.81-1.81-10-2-12.72-.07-.75,3.62-5.57,4.34-6.12l.42-.07s.53-.11.84-.15c1.24-.22,3-.49,5-.74a70.78,70.78,0,0,1,13-.6s0,0,0,0c.7.06,1.37.13,2,.23,3.16.5,6.61,1.14,9.77,1.9a46.15,46.15,0,0,1,8,2.58,7.54,7.54,0,0,1,2.4,1.52,8.22,8.22,0,0,1,1.55,3.32,14,14,0,0,1,.37,4.29A7.73,7.73,0,0,1,103.81,141.37Zm69.46.58c-.65,2.63-2.27,7.65-4,12.25-.85,2.31-1.73,4.53-2.5,6.32-.39.89-.76,1.67-1.07,2.29A9.33,9.33,0,0,1,165,164a4.38,4.38,0,0,1-1.78,1.15,24.44,24.44,0,0,1-6.78,1.49,50.29,50.29,0,0,1-8.41.08c-7.12-.54-11.95-3-14.37-5.82a23.24,23.24,0,0,1-2.28-3.52,88.84,88.84,0,0,1-3.88-8.13c-.58-1.35-1.08-2.64-1.48-3.72a22.6,22.6,0,0,1-.77-2.43,7.64,7.64,0,0,1-.13-2.36,13.82,13.82,0,0,1,1-4.18,8.18,8.18,0,0,1,2-3.05,7.65,7.65,0,0,1,2.59-1.14,46.94,46.94,0,0,1,8.35-1.32c3.25-.27,6.75-.37,10-.39.62,0,1.29,0,2,.08h.05a70.6,70.6,0,0,1,12.73,2.57c1.94.56,3.62,1.09,4.82,1.48l.81.27.08,0,.24.08a.2.2,0,0,0,.08,0,26.82,26.82,0,0,1,2.43,2.86,9.17,9.17,0,0,1,1,1.7,2.13,2.13,0,0,1,.22.8A10.53,10.53,0,0,1,173.27,142Z" transform="translate(-27.62 -32.27)"/><path class="d" d="M181.69,136.22c-.08.93-1.51,1.57-3.19,1.45s-3-1-2.94-1.92,1.5-1.57,3.19-1.44S181.75,135.29,181.69,136.22Z" transform="translate(-27.62 -32.27)"/><path class="d" d="M55.73,126.58c-.07.92-1.5,1.57-3.19,1.44s-3-1-2.93-1.91,1.5-1.58,3.18-1.44S55.8,125.65,55.73,126.58Z" transform="translate(-27.62 -32.27)"/><path class="a" d="M90,140.74a5.49,5.49,0,1,1-5.92-5A5.5,5.5,0,0,1,90,140.74Z" transform="translate(-27.62 -32.27)"/><path class="a" d="M153.47,145.94a5.49,5.49,0,1,1-5.92-5A5.48,5.48,0,0,1,153.47,145.94Z" transform="translate(-27.62 -32.27)"/><path class="a" d="M131.62,192.92a26.26,26.26,0,0,1-3.12,10.57c-1.79,3.09-4.23,1.56-6.73,0-3.41-2.17-11.54,2.51-7.13,5.31,5.89,3.74,12.3,4.54,18.33.65,5.48-3.53,7.34-11.22,8-17.23.52-4.73-8.9-3.43-9.36.72Z" transform="translate(-27.62 -32.27)"/><path class="b" d="M367.84,220.36C281.16,246,201.63,132.3,309.49,102.28,375.78,84.73,442,191.43,367.37,222.34" transform="translate(-27.62 -32.27)"/><path class="a" d="M367.46,218.92c-32.66,9.44-69.46-3.27-90.78-29.47-8.66-10.63-14.55-23.94-14.32-37.82.24-14.89,9.08-27.7,21-36,15.17-10.58,33.8-15.9,52-11.49,16.6,4,31.34,15,42,28.06,20.08,24.55,27.6,64.07-2.53,84.2a62.3,62.3,0,0,1-10.3,5.39c-.77.32-3.47,2-1.26,2.45s4.9-.43,7-1.3c15.35-6.51,28.7-17.5,33.37-34,4.2-14.9.44-30.87-6.43-44.34-15.22-29.87-47.73-50.63-81.65-45.12-30.15,4.89-66.42,26.23-62.84,61.11,3.11,30.16,31.58,52.82,58.65,61.36,18.44,5.82,38.45,5.25,56.91-.09.78-.23,5-1.32,4.59-2.78s-4.58-.34-5.36-.11Z" transform="translate(-27.62 -32.27)"/><path class="b" d="M367.43,146.72c-2.54,5.07-5.08,10.14-5.08,17.74" transform="translate(-27.62 -32.27)"/><path class="a" d="M362.53,147.66c-2.91,5.84-5,11.53-5.15,18.14,0,1.19,9.9,0,9.95-2.67.13-6.36,2.19-11.74,5-17.35.73-1.45-3.51-.75-3.91-.68-1.52.3-5.07.93-5.88,2.56Z" transform="translate(-27.62 -32.27)"/><path class="b" d="M311.66,131.5c-5.07,5.07-7.61,10.15-7.61,17.75" transform="translate(-27.62 -32.27)"/><path class="a" d="M307.64,130.57c-5.33,5.46-8.44,11.54-8.57,19.26-.08,4.35,9.91,2.32,10-1.16a22.46,22.46,0,0,1,6.64-16.24c1.47-1.5,1.16-3.24-1-3.74a8.19,8.19,0,0,0-7,1.88Z" transform="translate(-27.62 -32.27)"/><path class="b" d="M357.13,189.42c-8.27,17.69-27.14,22.41-42.48,14.15" transform="translate(-27.62 -32.27)"/><path class="a" d="M352.5,189.35c-3.1,6.33-7.5,11.62-14.15,14.31-6.41,2.59-13.88.55-19.73-2.46-2.8-1.44-12,2.66-7.94,4.73,18.51,9.52,41.82,2.36,51.07-16.45,2.07-4.22-7.86-2.95-9.25-.13Z" transform="translate(-27.62 -32.27)"/><path class="a" d="M330.77,231.61c-2.52,28.61,4.2,56.25,11.09,83.79.91,3.62,10.16,1.18,9.24-2.48-6.76-27-13.52-54.2-11.05-82.3.37-4.16-9-2.5-9.28,1Z" transform="translate(-27.62 -32.27)"/><path class="a" d="M314.3,260c-7.79,20.39-11,42.21-24.92,59.76-1.9,2.38,7,1.1,8.38-.65,14.29-18,17.67-39.79,25.67-60.71.67-1.76-8.21-.8-9.13,1.6Z" transform="translate(-27.62 -32.27)"/><path class="a" d="M91.25,257.73C70.92,276.51,43.48,287.54,28,311.41c-2.38,3.66,6.94,2.83,8.62.25,15-23.22,42.23-34,62.05-52.34,1.44-1.32,1-2.93-.89-3.34a7.87,7.87,0,0,0-6.54,1.75Z" transform="translate(-27.62 -32.27)"/><path class="b" d="M827.18,298.2c-4.82-21.68-44.58-24.09-37.35-1.2,3.61,12.05,39.76,13.25,36.14-1.21" transform="translate(-27.62 -32.27)"/><path class="a" d="M831.8,297c-2.83-11.4-14.16-17.39-25.21-17.91-9.2-.43-22.4,3.53-22.24,14.6.16,11.83,14.35,14.48,23.7,14.48,7.46,0,24.82-2.64,22.55-13.58-.38-1.82-9.68.4-9.25,2.47,1.71,8.24-7.44,7.9-12.93,7.1-7.72-1.13-14.21-4.59-14.83-12.95s5.81-9.24,12.12-7.72c8,1.93,14.84,7.9,16.85,16,.47,1.89,9.73-.5,9.24-2.47Z" transform="translate(-27.62 -32.27)"/><path class="a" d="M989.5,212.08c-32.92,15.23-75.17,6.21-97.32-23.17-8.88-11.77-12.82-27.2-7.43-41.31,6.68-17.52,26.16-30.74,43.64-35.51,27.61-7.54,56.92,10.7,72.23,32.69,7.31,10.5,12,23.34,10.86,36.24-1.26,14.77-11,26-23.15,33.59-1.56,1-2.46,3.26-.59,4.42s4.73.5,6.6-.65c14.7-9.1,25.87-23.16,26.64-40.95.7-16.24-7.17-31.82-17.51-43.87A86.1,86.1,0,0,0,960,106.32c-19-4.84-37.25-.63-54,9.13-15.18,8.87-29.06,21.9-32.51,39.82-2.82,14.64,3.27,29.34,12.47,40.51,23.09,28,64.77,36.6,98.26,25,3.14-1.09,6.2-2.34,9.21-3.73,5.77-2.68.58-7.05-4-4.95Z" transform="translate(-27.62 -32.27)"/><path class="a" d="M967,190c-7.64,4.45-16.1,8.34-25.15,7.93-8.69-.38-15.5-5.68-20.44-12.47-2.42-3.33-11.24.22-8.47,4,14.61,20.09,38.72,17.12,58.12,5.82,5.42-3.15.47-8-4.06-5.32Z" transform="translate(-27.62 -32.27)"/><path class="a" d="M963,196.24a25.76,25.76,0,0,1-2.45,10.9,7.72,7.72,0,0,1-2.5,3c2.52-1.63,3.82-.49,1.37-1a13.78,13.78,0,0,1-3.73-1.58c-1.59-.86-4.39.08-5.92.62-.29.1-4.19,1.7-2.81,2.45a18.17,18.17,0,0,0,18.65-.79c5.26-3.39,6.41-10.33,6.64-16.11,0-1.17-9.15-.08-9.25,2.47Z" transform="translate(-27.62 -32.27)"/><path class="a" d="M931.41,146.68c-9.81-2.79-20.27,0-28.86,5.08-1.53.9-1.2,1.9.52,2a12.85,12.85,0,0,0,6.54-1.75,16.81,16.81,0,0,1,14.19-1.75c2,.56,4.71-.39,6.45-1.2.82-.38,3.13-1.77,1.16-2.33Z" transform="translate(-27.62 -32.27)"/><path class="a" d="M982.27,156.27c-5.79-7.47-15-9.66-24.09-9.57-5.07.06-7.27,6.3-1,6.23s12.58,2.13,16.56,7.26c2.37,3.05,11.22-.41,8.5-3.92Z" transform="translate(-27.62 -32.27)"/><path class="a" d="M908,251.31c-11.27,6.56-23.44,12.95-36.9,11.46-19.86-2.21-35.75-20-44-36.9-17.64-35.94,3-76.66,23.08-106.73.91-1.37-3.4-.87-3.68-.82-1.71.31-4.38.9-5.43,2.48-23.19,34.69-43.78,80.79-16.27,119.1,11.18,15.58,27.31,27.54,47.16,26.74,15.61-.62,29.88-7.43,43.14-15.15,1.54-.89,1.2-1.89-.51-1.93a12.85,12.85,0,0,0-6.54,1.75Z" transform="translate(-27.62 -32.27)"/><path class="b" d="M764.39,183.29c-72,49.35-178.85-31.4-88.72-91.07,55.65-35.84,148.16,42.45,88.89,93" transform="translate(-27.62 -32.27)"/><path class="a" d="M761.69,182.11c-31.23,21.08-76.31,18.36-102.82-9.49-10.82-11.37-15.87-26.88-11.6-42.2,5.19-18.68,23.78-35.61,41.54-42.17,26.34-9.72,57.69,5.29,75.26,24.89,8.6,9.59,14.57,21.68,15.16,34.67.66,14.63-7.5,27.55-18.18,36.82-1.37,1.19-1,2.59.77,2.91a8.08,8.08,0,0,0,6.24-1.67c13-11.31,21.61-26.45,19.71-44.09-1.73-16.12-12.26-30.38-24.31-40.57a87.1,87.1,0,0,0-47.1-20.09c-19.29-1.87-36.53,4.26-51.75,15.88-14.35,11-27.29,26.72-27.82,45.54-.43,15.37,8.08,29,19.45,38.74,28.64,24.44,72.33,25,104.32,7.26,2.25-1.24,4.41-2.64,6.53-4.07,4.95-3.34-2.75-4.15-5.4-2.36Z" transform="translate(-27.62 -32.27)"/><path class="b" d="M740.78,119.6c2.59,4.63,2.59,9.26,2.59,13.9" transform="translate(-27.62 -32.27)"/><path class="a" d="M736.16,120.84c2.31,4.4,2.59,9,2.59,13.89,0,1.66,9.24.28,9.24-2.47,0-4.88-.29-9.49-2.59-13.9-1.25-2.38-10.06.92-9.24,2.48Z" transform="translate(-27.62 -32.27)"/><path class="b" d="M685.31,118.73c2.59,6.18,2.59,10.81,2.59,15.44" transform="translate(-27.62 -32.27)"/><path class="a" d="M680.69,120a38.15,38.15,0,0,1,2.55,14.64c0,4.55,9.32,2.92,9.32-.86,0-5.66-.5-11-2.64-16.25-1.54-3.86-10.7-1.18-9.23,2.47Z" transform="translate(-27.62 -32.27)"/><path class="b" d="M693.24,158.59c6.82,10,22.39,12.63,35,8" transform="translate(-27.62 -32.27)"/><path class="a" d="M689.28,160.23c9.23,12.58,27.24,12.64,40.66,8,1-.34,3.62-2,2.3-3.32s-4.1-.57-5.63,0c-10.32,3.56-22.78,1.1-29.41-7.94-1.66-2.27-9.89.6-7.92,3.29Z" transform="translate(-27.62 -32.27)"/><path class="e" d="M229.84,231.4a25.92,25.92,0,0,1,1.66-6.08c2.32-6,4.15-10.12,1.2-13.89a12.58,12.58,0,0,0-7-5,12.44,12.44,0,0,0-12.34,2.15,15.43,15.43,0,0,0-5.7,12.83,30.82,30.82,0,0,0,1.31,8.4" transform="translate(-27.62 -32.27)"/><path class="e" d="M192.62,243.1c-2.69,4.73,1.08,7.63.51,9.09s-3.72,2.51-4,5.77-.54,3.1.73,6.55c1,2.84,5.58,2.43,6.8,5.17.81,1.84-2.49,5.05-1.06,7.54,1.79,3.15,4.18,4.94,7.48,6.89,13.42,7.92,31.49,2,39.62-11.75s3.84-31.33-9.57-39.25S200.53,229.22,192.62,243.1Z" transform="translate(-27.62 -32.27)"/><path class="f" d="M196.93,270.12c.4-.68,13.24-8.06,26-2.23" transform="translate(-27.62 -32.27)"/><path class="f" d="M192.79,253c3.05-2.15,18.47-9.86,35.33-1.64" transform="translate(-27.62 -32.27)"/><path class="e" d="M836.61,61.74A26.43,26.43,0,0,0,835,55.66c-2.32-6-4.15-10.12-1.2-13.89a13.8,13.8,0,0,1,19.39-2.87,15.42,15.42,0,0,1,5.69,12.83,30.51,30.51,0,0,1-1.3,8.4" transform="translate(-27.62 -32.27)"/><path class="e" d="M873.82,73.44c2.7,4.73-1.07,7.63-.5,9.09s3.72,2.51,4,5.77.53,3.1-.73,6.56c-1,2.83-5.58,2.42-6.8,5.16-.81,1.84,2.49,5,1.06,7.54-1.8,3.15-4.18,4.94-7.49,6.9-13.41,7.91-31.48,2-39.61-11.76s-3.84-31.33,9.57-39.25S865.91,59.56,873.82,73.44Z" transform="translate(-27.62 -32.27)"/><path class="f" d="M869.52,100.47c-.41-.69-13.24-8.07-26-2.24" transform="translate(-27.62 -32.27)"/><path class="f" d="M873.66,83.35c-3-2.15-18.47-9.86-35.34-1.64" transform="translate(-27.62 -32.27)"/><path class="b" d="M474,208.44c79.79,32.26,165.59-68.2,66.12-106.55-61.2-22.7-133.7,72.35-65.86,108.48" transform="translate(-27.62 -32.27)"/><path class="a" d="M469.34,210.79c33.82,13.41,74.46,5.19,101.12-19.4,10.51-9.7,18.84-23,20-37.54,1.21-15.58-6.53-29.09-18.19-38.92-14.62-12.32-34.29-20.12-53.48-18.88-18,1.15-35.41,9.08-49.1,20.62-24.23,20.43-40.8,58.43-15.63,84.8a60,60,0,0,0,14.87,10.91c2.16,1.17,5.2.38,7.36-.43.47-.18,5.29-2.5,3.27-3.59-15.58-8.48-26.62-22.16-27-40.39-.31-16.72,8.72-32.78,19.8-44.67,11.32-12.14,26.83-21.49,43.69-22.28,18.74-.88,39.15,10.29,51.64,23.71a41.85,41.85,0,0,1,11.18,34c-1.72,12.65-9.06,23.82-18.06,32.55-21.94,21.26-54.3,25.89-82.25,14.81-2.72-1.08-13,3.19-9.22,4.7Z" transform="translate(-27.62 -32.27)"/><path class="a" d="M493,186.93c10,5.12,21,8.79,32.43,7.17,10.37-1.48,18.47-8,24-16.58,1.67-2.59-4.15-2.52-5.42-.55-4.52,7-10.84,12.13-19.25,13.33-9.42,1.35-19.12-2.35-27.35-6.55-2.09-1.07-7.16,1.79-4.42,3.18Z" transform="translate(-27.62 -32.27)"/><path class="a" d="M533.7,132.2c2.86,5.65,5.62,10.82,5.77,17.31,0,2.24,7.5.81,7.43-2-.15-6.49-2.9-11.66-5.77-17.32-1.26-2.48-8.47,0-7.43,2Z" transform="translate(-27.62 -32.27)"/><path class="a" d="M490.65,134c4.78,6.34,5.56,13.24,4.13,20.89-.41,2.18,7,.88,7.36-1.17,1.56-8.29.65-15.52-4.52-22.39-1.22-1.62-8.36.82-7,2.67Z" transform="translate(-27.62 -32.27)"/><path class="a" d="M496.27,227.4c-2.12,11.78-4.26,23.56-5.33,35.48-1.14,12.79-1.3,26.08,1.86,38.62a54.92,54.92,0,0,0,8.33,18.5c.56.79,2.06,1.06,2.92,1.12a9.23,9.23,0,0,0,4.18-.8c1.66-.79,4.21-2.6,2.75-4.66-.83-1.16-1.61-2.36-2.32-3.59l-.49-.86c.21.39-.24-.46-.3-.58-.32-.64-.64-1.28-.94-1.94a56.83,56.83,0,0,1-3-8.22,84.05,84.05,0,0,1-2.84-18.11c-.17-3.08-.2-5.8-.13-9s.25-6.4.5-9.59c.49-6.25,1.29-12.47,2.25-18.66s2.12-12.57,3.25-18.84c.81-4.48-10-2.82-10.7,1.17Z" transform="translate(-27.62 -32.27)"/><path class="a" d="M510.3,244.44c11.41,14.91,29.42,23.21,45.36,32.27,2.79,1.59,12.67-2.56,8.54-4.91-15.53-8.83-32.85-16.87-44-31.4-2-2.67-12.31.92-9.92,4Z" transform="translate(-27.62 -32.27)"/><path class="g" d="M601.82,259.54a25.78,25.78,0,0,1,1.65-6.08c2.32-6,4.15-10.12,1.2-13.9a13.8,13.8,0,0,0-19.38-2.86,15.4,15.4,0,0,0-5.7,12.83,30.51,30.51,0,0,0,1.3,8.4" transform="translate(-27.62 -32.27)"/><path class="g" d="M564.6,271.24c-2.69,4.73,1.07,7.63.5,9.09s-3.72,2.51-4,5.77-.54,3.1.73,6.56c1,2.83,5.57,2.42,6.79,5.16.82,1.84-2.48,5.05-1.06,7.54,1.8,3.15,4.19,4.94,7.49,6.9,13.41,7.91,31.49,2,39.61-11.76s3.84-31.33-9.57-39.25S572.51,257.36,564.6,271.24Z" transform="translate(-27.62 -32.27)"/><path class="h" d="M568.91,298.26c.4-.68,13.23-8.06,26-2.23" transform="translate(-27.62 -32.27)"/><path class="h" d="M564.77,281.15c3.05-2.15,18.47-9.86,35.33-1.64" transform="translate(-27.62 -32.27)"/><path class="a" d="M482.1,241c-15.81,22.06-24.73,48.79-28.94,75.42-.12.8,8.82.22,9.25-2.48,4.16-26.35,13.14-52.83,28.78-74.65.91-1.27-3.42-.75-3.65-.7-1.7.32-4.35.88-5.44,2.41Z" transform="translate(-27.62 -32.27)"/></svg>